<svg xmlns="http://www.w3.org/2000/svg" xmlns:xlink="http://www.w3.org/1999/xlink" width="64" height="61" viewBox="0 0 64 61"><defs><path id="mmgxa" d="M481.067 254.187l-13.26 4.837a1.275 1.275 0 0 1-1.638-.746 1.257 1.257 0 0 1 .756-1.62l13.259-4.836a1.28 1.28 0 0 1 1.638.746 1.256 1.256 0 0 1-.755 1.619zm-16.905 6.167l-.561.205a1.275 1.275 0 0 1-1.638-.746 1.257 1.257 0 0 1 .755-1.62l.562-.204a1.279 1.279 0 0 1 1.637.746 1.256 1.256 0 0 1-.755 1.619zm16.905-11.303l-10.478 3.822a1.275 1.275 0 0 1-1.638-.746 1.257 1.257 0 0 1 .755-1.62l10.478-3.822a1.28 1.28 0 0 1 1.638.747 1.256 1.256 0 0 1-.755 1.619zm0-5.083l-10.478 3.822a1.275 1.275 0 0 1-1.638-.746 1.257 1.257 0 0 1 .755-1.619l10.478-3.823a1.28 1.28 0 0 1 1.638.747 1.256 1.256 0 0 1-.755 1.619zm5.933-23.5v36.063c0 .528-.333 1-.834 1.182l-30.725 11.21v-.002a1.288 1.288 0 0 1-.882.001l-30.726-11.209a1.261 1.261 0 0 1-.833-1.182v-36.063a1.257 1.257 0 0 1 .833-1.182l30.726-11.21a1.29 1.29 0 0 1 .882 0l30.725 11.21c.501.182.834.654.834 1.182zm-33.275 45.463zm0 0v-33.376l-6.12-2.232v14.342c0 .412-.204.799-.546 1.034a1.285 1.285 0 0 1-1.17.149l-13.769-5.023a1.261 1.261 0 0 1-.833-1.183V224.37l-5.737-2.093v33.375zM433.837 225.3v13.463l11.219 4.093v-13.463zm12.494 1.86l10.086-3.679-10.086-3.68-10.086 3.68zm35.711-6.692L455 210.603l-27.042 9.865 4.59 1.675 13.341-4.868a1.29 1.29 0 0 1 .883 0l13.769 5.023c.5.183.833.655.833 1.183s-.332 1-.833 1.182L450 228.51l5 1.824zm2.408 1.809l-28.175 10.278v33.376l28.175-10.279z"/></defs><g><g transform="translate(-423 -208)"><use fill="#fff" xlink:href="#mmgxa"/></g></g></svg>